<?xml version="1.0" standalone="no"?>
<!DOCTYPE svg PUBLIC "-//W3C//DTD SVG 20010904//EN"
 "http://www.w3.org/TR/2001/REC-SVG-20010904/DTD/svg10.dtd">
<svg version="1.0" xmlns="http://www.w3.org/2000/svg"
 width="700.000000pt" height="700.000000pt" viewBox="0 0 700.000000 700.000000"
 preserveAspectRatio="xMidYMid meet">
<metadata>
Created by potrace 1.14, written by Peter Selinger 2001-2017
</metadata>
<g transform="translate(0.000000,700.000000) scale(0.100000,-0.100000)"
fill="#000000" stroke="none">
<path d="M2755 6508 c-161 -36 -323 -197 -351 -349 -4 -24 -9 -47 -10 -51 -1
-5 -2 -93 -3 -197 l-1 -189 -107 1 c-107 0 -319 -10 -364 -18 -13 -3 -46 -7
-72 -9 -163 -17 -371 -77 -522 -152 -245 -120 -461 -337 -626 -629 -45 -79
-53 -95 -102 -205 -63 -143 -142 -393 -173 -550 -21 -110 -44 -233 -49 -270
-3 -25 -8 -52 -10 -60 -2 -8 -7 -46 -11 -85 -3 -38 -8 -72 -9 -76 -4 -6 -18
-139 -19 -184 -7 -186 106 -374 279 -467 115 -61 258 -77 388 -43 50 12 72 14
80 6 6 -6 14 -11 18 -11 7 0 67 60 154 155 130 140 362 368 480 470 44 39 82
72 85 75 24 27 198 147 245 170 91 44 334 86 336 58 0 -7 2 -139 3 -293 2
-260 4 -284 24 -334 51 -129 132 -218 247 -271 185 -86 380 -45 550 115 68 65
291 274 340 320 22 20 96 90 165 155 69 64 141 132 160 150 19 18 89 83 154
144 65 61 124 116 130 121 220 205 349 329 379 363 73 85 111 189 109 307 -1
141 -50 237 -197 390 -48 50 -180 186 -294 304 -113 118 -254 265 -313 325
-58 61 -128 134 -155 162 -111 119 -423 442 -490 509 -106 105 -213 153 -344
152 -35 0 -82 -4 -104 -9z m173 -485 c30 -32 102 -108 160 -169 59 -61 193
-199 297 -308 105 -109 219 -228 255 -265 90 -94 398 -415 497 -518 82 -86 89
-103 56 -130 -8 -6 -51 -47 -97 -90 -45 -43 -146 -139 -226 -213 -79 -74 -173
-163 -209 -196 -37 -34 -82 -76 -101 -94 -19 -18 -93 -88 -165 -155 -71 -68
-146 -137 -165 -155 -54 -50 -270 -252 -299 -280 -54 -51 -68 -60 -85 -54 -9
4 -16 17 -16 33 0 20 19 44 81 100 l80 74 -52 53 -53 54 -28 -27 -28 -27 0
322 c0 177 -3 322 -6 322 -4 0 -61 9 -128 21 -279 49 -611 17 -816 -78 -51
-23 -247 -149 -275 -176 -7 -7 -27 -24 -46 -39 -19 -14 -45 -36 -59 -48 -181
-156 -345 -314 -564 -542 -19 -21 -39 -38 -43 -39 -5 0 -18 -2 -31 -5 -32 -6
-81 22 -92 51 -5 14 -7 42 -5 62 21 170 33 259 45 333 5 30 12 71 15 90 35
223 124 510 215 692 101 204 259 396 398 486 147 95 337 148 611 169 108 9
376 9 501 0 52 -4 137 -9 188 -13 l92 -6 0 404 c0 223 3 408 7 411 16 17 40 3
91 -50z"/>
<path d="M4598 6409 c-80 -18 -156 -83 -194 -165 -52 -111 -28 -238 61 -330
23 -24 92 -61 130 -71 23 -5 72 -11 110 -12 39 -1 81 -4 95 -6 14 -2 48 -6 75
-10 77 -11 251 -71 334 -116 226 -122 414 -320 515 -542 39 -85 81 -219 91
-287 3 -25 9 -63 12 -85 8 -56 8 -2485 0 -2568 -52 -542 -499 -991 -1039
-1043 -89 -9 -2527 -9 -2583 -1 -120 19 -163 29 -247 58 -285 98 -513 292
-657 561 -38 72 -94 219 -104 278 -3 14 -10 52 -16 85 -6 33 -12 94 -13 135
-1 41 -8 98 -16 125 -60 207 -319 277 -477 128 -70 -65 -95 -141 -89 -269 23
-572 304 -1077 778 -1397 66 -45 275 -155 321 -170 11 -3 38 -13 60 -22 69
-26 197 -61 260 -70 17 -3 41 -7 55 -10 80 -17 283 -20 1435 -20 1332 0 1384
1 1553 40 271 62 577 216 758 381 17 16 49 45 71 65 54 49 159 171 215 249
180 252 286 539 315 845 10 102 10 2599 0 2685 -4 36 -9 75 -11 86 -2 12 -7
39 -10 60 -21 128 -85 312 -163 464 -288 565 -859 933 -1484 954 -57 1 -121
-1 -141 -5z"/>
</g>
</svg>
